<svg width="185" height="218" viewBox="0 0 185 218" fill="none" xmlns="http://www.w3.org/2000/svg">
<path d="M6.3171 208.049H0V217.495C0.0153894 217.708 0.19794 217.815 0.547121 217.815H1.01729C1.36541 217.815 1.5485 217.708 1.56282 217.495V213.301H4.57491C4.78399 213.301 4.89596 213.174 4.91241 212.918V212.633C4.89596 212.378 4.78399 212.25 4.57491 212.25H1.56282V209.202H6.3171C6.50177 209.188 6.59357 209.045 6.59357 208.773V208.41C6.59357 208.183 6.50177 208.063 6.3171 208.049Z" fill="white"/>
<path d="M6.3171 208.049H0V217.495C0.0153894 217.708 0.19794 217.815 0.547121 217.815H1.01729C1.36541 217.815 1.5485 217.708 1.56282 217.495V213.301H4.57491C4.78399 213.301 4.89596 213.174 4.91241 212.918V212.633C4.89596 212.378 4.78399 212.25 4.57491 212.25H1.56282V209.202H6.3171C6.50177 209.188 6.59357 209.045 6.59357 208.773V208.41C6.59357 208.183 6.50177 208.063 6.3171 208.049Z" fill="white"/>
<path d="M13.3886 214.508C13.0553 215.776 12.3262 216.412 11.1991 216.416C10.0629 216.416 9.49507 215.637 9.49507 214.079C9.63835 212.461 10.3999 211.629 11.7754 211.583C12.5517 211.583 13.0904 211.74 13.3886 212.053V214.508ZM11.8284 210.293C9.52532 210.383 8.25649 211.651 8.02246 214.093C8.02246 216.575 9.11299 217.815 11.2956 217.815C12.2689 217.723 12.9657 217.367 13.3886 216.746V217.495C13.405 217.708 13.5849 217.815 13.9362 217.815H14.4064C14.754 217.815 14.9366 217.708 14.9514 217.495V211.473C14.4897 210.686 13.447 210.293 11.8284 210.293Z" fill="white"/>
<path d="M13.3886 214.508C13.0553 215.776 12.3262 216.412 11.1991 216.416C10.0629 216.416 9.49507 215.637 9.49507 214.079C9.63835 212.461 10.3999 211.629 11.7754 211.583C12.5517 211.583 13.0904 211.74 13.3886 212.053V214.508ZM11.8284 210.293C9.52532 210.383 8.25649 211.651 8.02246 214.093C8.02246 216.575 9.11299 217.815 11.2956 217.815C12.2689 217.723 12.9657 217.367 13.3886 216.746V217.495C13.405 217.708 13.5849 217.815 13.9362 217.815H14.4064C14.754 217.815 14.9366 217.708 14.9514 217.495V211.473C14.4897 210.686 13.447 210.293 11.8284 210.293Z" fill="white"/>
<path d="M20.669 211.548C21.4857 211.548 22.0758 211.805 22.4409 212.319C22.4754 212.379 22.5364 212.408 22.6197 212.408C22.676 212.408 22.737 212.396 22.8076 212.374L23.6975 212C23.7755 211.953 23.8169 211.9 23.8169 211.836C23.8169 211.795 23.8037 211.752 23.7787 211.712C23.2008 210.776 22.1644 210.293 20.669 210.267C18.238 210.312 17.0174 211.569 17.0068 214.038C17.0174 216.479 18.238 217.723 20.669 217.769C22.1644 217.741 23.2008 217.259 23.7787 216.323C23.8037 216.281 23.8169 216.241 23.8169 216.199C23.8169 216.136 23.7755 216.082 23.6975 216.035L22.8076 215.661C22.737 215.638 22.676 215.627 22.6197 215.627C22.5364 215.627 22.4754 215.656 22.4409 215.715C22.0758 216.228 21.4857 216.485 20.669 216.485C19.3434 216.485 18.6609 215.671 18.6217 214.038C18.6609 212.379 19.3434 211.548 20.669 211.548Z" fill="white"/>
<path d="M20.669 211.548C21.4857 211.548 22.0758 211.805 22.4409 212.319C22.4754 212.379 22.5364 212.408 22.6197 212.408C22.676 212.408 22.737 212.396 22.8076 212.374L23.6975 212C23.7755 211.953 23.8169 211.9 23.8169 211.836C23.8169 211.795 23.8037 211.752 23.7787 211.712C23.2008 210.776 22.1644 210.293 20.669 210.267C18.238 210.312 17.0174 211.569 17.0068 214.038C17.0174 216.479 18.238 217.723 20.669 217.769C22.1644 217.741 23.2008 217.259 23.7787 216.323C23.8037 216.281 23.8169 216.241 23.8169 216.199C23.8169 216.136 23.7755 216.082 23.6975 216.035L22.8076 215.661C22.737 215.638 22.676 215.627 22.6197 215.627C22.5364 215.627 22.4754 215.656 22.4409 215.715C22.0758 216.228 21.4857 216.485 20.669 216.485C19.3434 216.485 18.6609 215.671 18.6217 214.038C18.6609 212.379 19.3434 211.548 20.669 211.548Z" fill="white"/>
<path d="M31.8216 210.301H31.352C31.0038 210.301 30.8202 210.408 30.8064 210.621V214.807C30.4381 215.977 29.7371 216.572 28.705 216.595C27.7588 216.595 27.2854 215.829 27.2854 214.296V210.621C27.2706 210.408 27.0886 210.301 26.7404 210.301H26.2676C25.919 210.301 25.738 210.408 25.7231 210.621V214.324C25.7231 216.637 26.7203 217.794 28.714 217.794C29.6496 217.794 30.3474 217.484 30.8064 216.86V217.495C30.8202 217.709 31.0038 217.815 31.352 217.815H31.8216C32.1729 217.815 32.3528 217.709 32.3687 217.495V210.621C32.3528 210.408 32.1729 210.301 31.8216 210.301Z" fill="white"/>
<path d="M31.8216 210.301H31.352C31.0038 210.301 30.8202 210.408 30.8064 210.621V214.807C30.4381 215.977 29.7371 216.572 28.705 216.595C27.7588 216.595 27.2854 215.829 27.2854 214.296V210.621C27.2706 210.408 27.0886 210.301 26.7404 210.301H26.2676C25.919 210.301 25.738 210.408 25.7231 210.621V214.324C25.7231 216.637 26.7203 217.794 28.714 217.794C29.6496 217.794 30.3474 217.484 30.8064 216.86V217.495C30.8202 217.709 31.0038 217.815 31.352 217.815H31.8216C32.1729 217.815 32.3528 217.709 32.3687 217.495V210.621C32.3528 210.408 32.1729 210.301 31.8216 210.301Z" fill="white"/>
<path d="M37.8769 216.362C37.8716 216.362 37.8658 216.365 37.8552 216.368C37.7305 216.414 37.5336 216.438 37.2651 216.438C36.6617 216.438 36.3608 216.129 36.3608 215.51V207.64C36.3438 207.426 36.1629 207.32 35.8147 207.32H35.3419C34.9943 207.32 34.8128 207.426 34.7964 207.64V215.585C34.841 217.058 35.663 217.794 37.256 217.794C37.5203 217.794 37.757 217.772 37.9666 217.726C38.1582 217.686 38.2585 217.411 38.2739 216.901V216.868C38.2739 216.531 38.1412 216.362 37.8769 216.362Z" fill="white"/>
<path d="M37.8769 216.362C37.8716 216.362 37.8658 216.365 37.8552 216.368C37.7305 216.414 37.5336 216.438 37.2651 216.438C36.6617 216.438 36.3608 216.129 36.3608 215.51V207.64C36.3438 207.426 36.1629 207.32 35.8147 207.32H35.3419C34.9943 207.32 34.8128 207.426 34.7964 207.64V215.585C34.841 217.058 35.663 217.794 37.256 217.794C37.5203 217.794 37.757 217.772 37.9666 217.726C38.1582 217.686 38.2585 217.411 38.2739 216.901V216.868C38.2739 216.531 38.1412 216.362 37.8769 216.362Z" fill="white"/>
<path d="M44.8447 214.508C44.512 215.776 43.7797 216.412 42.6541 216.416C41.5174 216.416 40.9512 215.637 40.9512 214.079C41.0945 212.46 41.8555 211.629 43.231 211.583C44.0079 211.583 44.546 211.739 44.8447 212.053V214.508ZM45.862 207.319H45.3913C45.0416 207.319 44.8591 207.425 44.8447 207.64V210.457C44.4022 210.347 43.8805 210.292 43.283 210.292C40.9799 210.383 39.711 211.65 39.4775 214.092C39.4775 216.574 40.5697 217.815 42.7518 217.815C43.724 217.723 44.4218 217.366 44.8447 216.745V217.495C44.8591 217.708 45.0416 217.815 45.3913 217.815H45.862C46.2096 217.815 46.3922 217.708 46.4065 217.495V207.64C46.3922 207.425 46.2096 207.319 45.862 207.319Z" fill="white"/>
<path d="M44.8447 214.508C44.512 215.776 43.7797 216.412 42.6541 216.416C41.5174 216.416 40.9512 215.637 40.9512 214.079C41.0945 212.46 41.8555 211.629 43.231 211.583C44.0079 211.583 44.546 211.739 44.8447 212.053V214.508ZM45.862 207.319H45.3913C45.0416 207.319 44.8591 207.425 44.8447 207.64V210.457C44.4022 210.347 43.8805 210.292 43.283 210.292C40.9799 210.383 39.711 211.65 39.4775 214.092C39.4775 216.574 40.5697 217.815 42.7518 217.815C43.724 217.723 44.4218 217.366 44.8447 216.745V217.495C44.8591 217.708 45.0416 217.815 45.3913 217.815H45.862C46.2096 217.815 46.3922 217.708 46.4065 217.495V207.64C46.3922 207.425 46.2096 207.319 45.862 207.319Z" fill="white"/>
<path d="M54.0024 214.508C53.6691 215.776 52.9384 216.412 51.8118 216.416C50.6761 216.416 50.1083 215.637 50.1083 214.079C50.2516 212.461 51.0136 211.629 52.3886 211.583C53.1655 211.583 53.7036 211.74 54.0024 212.053V214.508ZM52.4406 210.293C50.138 210.383 48.8703 211.651 48.6362 214.093C48.6362 216.575 49.7268 217.815 51.9099 217.815C52.8811 217.723 53.5794 217.367 54.0024 216.746V217.495C54.0167 217.708 54.1992 217.815 54.549 217.815H55.0197C55.3672 217.815 55.5503 217.708 55.5631 217.495V211.473C55.1024 210.686 54.0591 210.293 52.4406 210.293Z" fill="white"/>
<path d="M54.0024 214.508C53.6691 215.776 52.9384 216.412 51.8118 216.416C50.6761 216.416 50.1083 215.637 50.1083 214.079C50.2516 212.461 51.0136 211.629 52.3886 211.583C53.1655 211.583 53.7036 211.74 54.0024 212.053V214.508ZM52.4406 210.293C50.138 210.383 48.8703 211.651 48.6362 214.093C48.6362 216.575 49.7268 217.815 51.9099 217.815C52.8811 217.723 53.5794 217.367 54.0024 216.746V217.495C54.0167 217.708 54.1992 217.815 54.549 217.815H55.0197C55.3672 217.815 55.5503 217.708 55.5631 217.495V211.473C55.1024 210.686 54.0591 210.293 52.4406 210.293Z" fill="white"/>
<path d="M62.8554 214.508C62.5211 215.776 61.7914 216.412 60.6638 216.416C59.5297 216.416 58.9598 215.637 58.9598 214.079C59.1041 212.46 59.8651 211.629 61.2406 211.583C62.0186 211.583 62.5567 211.739 62.8554 212.053V214.508ZM63.8722 207.319H63.3994C63.0523 207.319 62.8703 207.425 62.8554 207.64V210.457C62.4118 210.347 61.8907 210.292 61.2937 210.292C58.9911 210.383 57.7196 211.65 57.4888 214.092C57.4888 216.574 58.5798 217.815 60.7619 217.815C61.7331 217.723 62.4309 217.366 62.8554 216.745V217.495C62.8703 217.708 63.0523 217.815 63.3994 217.815H63.8722C64.2208 217.815 64.4029 217.708 64.4172 217.495V207.64C64.4029 207.425 64.2208 207.319 63.8722 207.319Z" fill="white"/>
<path d="M62.8554 214.508C62.5211 215.776 61.7914 216.412 60.6638 216.416C59.5297 216.416 58.9598 215.637 58.9598 214.079C59.1041 212.46 59.8651 211.629 61.2406 211.583C62.0186 211.583 62.5567 211.739 62.8554 212.053V214.508ZM63.8722 207.319H63.3994C63.0523 207.319 62.8703 207.425 62.8554 207.64V210.457C62.4118 210.347 61.8907 210.292 61.2937 210.292C58.9911 210.383 57.7196 211.65 57.4888 214.092C57.4888 216.574 58.5798 217.815 60.7619 217.815C61.7331 217.723 62.4309 217.366 62.8554 216.745V217.495C62.8703 217.708 63.0523 217.815 63.3994 217.815H63.8722C64.2208 217.815 64.4029 217.708 64.4172 217.495V207.64C64.4029 207.425 64.2208 207.319 63.8722 207.319Z" fill="white"/>
<path d="M70.3136 211.437C71.1813 211.437 71.6727 211.719 71.7862 212.278V212.318C71.7862 212.837 71.3946 213.194 70.6124 213.388C70.2828 213.47 69.9528 213.512 69.6184 213.512C69.1445 213.512 68.6584 213.453 68.1596 213.335C68.3952 212.161 69.1127 211.53 70.3136 211.437ZM73.3416 216.041L72.4511 215.666C72.3811 215.644 72.3179 215.632 72.2649 215.632C72.1805 215.632 72.1195 215.662 72.0855 215.722C71.7225 216.28 71.1319 216.561 70.3136 216.561C69.1085 216.561 68.3979 215.897 68.1819 214.57C68.6415 214.619 69.092 214.644 69.5372 214.644C71.8732 214.545 73.0667 213.737 73.1161 212.222C72.9425 210.959 72.033 210.313 70.389 210.286C68.0561 210.331 66.8101 211.563 66.6504 213.982C66.6621 216.466 67.8826 217.729 70.3136 217.774C71.8106 217.746 72.8454 217.265 73.4239 216.329C73.4483 216.288 73.4621 216.247 73.4621 216.205C73.4621 216.142 73.4212 216.088 73.3416 216.041Z" fill="white"/>
<path d="M70.3136 211.437C71.1813 211.437 71.6727 211.719 71.7862 212.278V212.318C71.7862 212.837 71.3946 213.194 70.6124 213.388C70.2828 213.47 69.9528 213.512 69.6184 213.512C69.1445 213.512 68.6584 213.453 68.1596 213.335C68.3952 212.161 69.1127 211.53 70.3136 211.437ZM73.3416 216.041L72.4511 215.666C72.3811 215.644 72.3179 215.632 72.2649 215.632C72.1805 215.632 72.1195 215.662 72.0855 215.722C71.7225 216.28 71.1319 216.561 70.3136 216.561C69.1085 216.561 68.3979 215.897 68.1819 214.57C68.6415 214.619 69.092 214.644 69.5372 214.644C71.8732 214.545 73.0667 213.737 73.1161 212.222C72.9425 210.959 72.033 210.313 70.389 210.286C68.0561 210.331 66.8101 211.563 66.6504 213.982C66.6621 216.466 67.8826 217.729 70.3136 217.774C71.8106 217.746 72.8454 217.265 73.4239 216.329C73.4483 216.288 73.4621 216.247 73.4621 216.205C73.4621 216.142 73.4212 216.088 73.3416 216.041Z" fill="white"/>
<path d="M84.1676 214.508C83.8333 215.776 83.102 216.412 81.9764 216.416C80.8397 216.416 80.2719 215.637 80.2719 214.079C80.4179 212.46 81.1762 211.629 82.5517 211.583C83.3296 211.583 83.8688 211.739 84.1676 212.053V214.508ZM85.1838 207.319H84.7126C84.3634 207.319 84.1803 207.425 84.1676 207.64V210.457C83.7223 210.347 83.2028 210.292 82.6042 210.292C80.3022 210.383 79.0344 211.65 78.7993 214.092C78.7993 216.574 79.8893 217.815 82.0736 217.815C83.0463 217.723 83.743 217.366 84.1676 216.745V217.495C84.1803 217.708 84.3634 217.815 84.7126 217.815H85.1838C85.5314 217.815 85.7139 217.708 85.7277 217.495V207.64C85.7139 207.425 85.5314 207.319 85.1838 207.319Z" fill="white"/>
<path d="M84.1676 214.508C83.8333 215.776 83.102 216.412 81.9764 216.416C80.8397 216.416 80.2719 215.637 80.2719 214.079C80.4179 212.46 81.1762 211.629 82.5517 211.583C83.3296 211.583 83.8688 211.739 84.1676 212.053V214.508ZM85.1838 207.319H84.7126C84.3634 207.319 84.1803 207.425 84.1676 207.64V210.457C83.7223 210.347 83.2028 210.292 82.6042 210.292C80.3022 210.383 79.0344 211.65 78.7993 214.092C78.7993 216.574 79.8893 217.815 82.0736 217.815C83.0463 217.723 83.743 217.366 84.1676 216.745V217.495C84.1803 217.708 84.3634 217.815 84.7126 217.815H85.1838C85.5314 217.815 85.7139 217.708 85.7277 217.495V207.64C85.7139 207.425 85.5314 207.319 85.1838 207.319Z" fill="white"/>
<path d="M91.6301 211.437C92.4972 211.437 92.9902 211.719 93.1021 212.278V212.318C93.1021 212.837 92.7116 213.194 91.9294 213.388C91.6003 213.47 91.2687 213.512 90.9349 213.512C90.462 213.512 89.976 213.453 89.4761 213.335C89.7117 212.161 90.4291 211.53 91.6301 211.437ZM94.6591 216.041L93.7676 215.666C93.6981 215.644 93.6355 215.632 93.5803 215.632C93.4959 215.632 93.4359 215.662 93.403 215.722C93.0374 216.28 92.4483 216.561 91.6301 216.561C90.4244 216.561 89.7154 215.897 89.4999 214.57C89.9584 214.619 90.4111 214.644 90.8537 214.644C93.1913 214.545 94.3826 213.737 94.4336 212.222C94.259 210.959 93.3494 210.313 91.7043 210.286C89.3747 210.331 88.1266 211.563 87.9663 213.982C87.9775 216.466 89.1985 217.729 91.6301 217.774C93.1265 217.746 94.1619 217.265 94.7398 216.329C94.7653 216.288 94.7791 216.247 94.7791 216.205C94.7791 216.142 94.7371 216.088 94.6591 216.041Z" fill="white"/>
<path d="M91.6301 211.437C92.4972 211.437 92.9902 211.719 93.1021 212.278V212.318C93.1021 212.837 92.7116 213.194 91.9294 213.388C91.6003 213.47 91.2687 213.512 90.9349 213.512C90.462 213.512 89.976 213.453 89.4761 213.335C89.7117 212.161 90.4291 211.53 91.6301 211.437ZM94.6591 216.041L93.7676 215.666C93.6981 215.644 93.6355 215.632 93.5803 215.632C93.4959 215.632 93.4359 215.662 93.403 215.722C93.0374 216.28 92.4483 216.561 91.6301 216.561C90.4244 216.561 89.7154 215.897 89.4999 214.57C89.9584 214.619 90.4111 214.644 90.8537 214.644C93.1913 214.545 94.3826 213.737 94.4336 212.222C94.259 210.959 93.3494 210.313 91.7043 210.286C89.3747 210.331 88.1266 211.563 87.9663 213.982C87.9775 216.466 89.1985 217.729 91.6301 217.774C93.1265 217.746 94.1619 217.265 94.7398 216.329C94.7653 216.288 94.7791 216.247 94.7791 216.205C94.7791 216.142 94.7371 216.088 94.6591 216.041Z" fill="white"/>
<path d="M102.557 214.297L104.091 210.198L105.622 214.297H102.557ZM104.875 208.323C104.83 208.218 104.76 208.136 104.666 208.077C104.581 208.027 104.458 208.002 104.299 208.002H103.664C103.52 208.002 103.395 208.034 103.295 208.098C103.191 208.162 103.121 208.237 103.079 208.323L99.6487 217.496C99.6397 217.541 99.6333 217.573 99.6333 217.591C99.6333 217.741 99.7824 217.816 100.076 217.816H100.696C101.041 217.816 101.262 217.709 101.36 217.496L102.192 215.279H105.989L106.818 217.496C106.918 217.709 107.142 217.816 107.49 217.816H107.886C108.178 217.816 108.321 217.741 108.321 217.591C108.321 217.573 108.316 217.541 108.306 217.496L104.875 208.323Z" fill="white"/>
<path d="M102.557 214.297L104.091 210.198L105.622 214.297H102.557ZM104.875 208.323C104.83 208.218 104.76 208.136 104.666 208.077C104.581 208.027 104.458 208.002 104.299 208.002H103.664C103.52 208.002 103.395 208.034 103.295 208.098C103.191 208.162 103.121 208.237 103.079 208.323L99.6487 217.496C99.6397 217.541 99.6333 217.573 99.6333 217.591C99.6333 217.741 99.7824 217.816 100.076 217.816H100.696C101.041 217.816 101.262 217.709 101.36 217.496L102.192 215.279H105.989L106.818 217.496C106.918 217.709 107.142 217.816 107.49 217.816H107.886C108.178 217.816 108.321 217.741 108.321 217.591C108.321 217.573 108.316 217.541 108.306 217.496L104.875 208.323Z" fill="white"/>
<path d="M118.095 210.301C117.067 210.301 116.288 210.707 115.755 211.521C115.326 210.707 114.586 210.301 113.533 210.301C112.491 210.301 111.737 210.716 111.269 211.547V210.621C111.255 210.408 111.072 210.301 110.723 210.301H110.252C109.903 210.301 109.721 210.408 109.707 210.621V217.495C109.721 217.709 109.903 217.815 110.252 217.815H110.723C111.072 217.815 111.255 217.709 111.269 217.495V213.853C111.547 212.352 112.166 211.598 113.122 211.588C114.129 211.588 114.632 212.42 114.632 214.08V217.495C114.648 217.709 114.83 217.815 115.179 217.815H115.65C115.999 217.815 116.181 217.709 116.196 217.495V214.038C116.344 212.41 116.89 211.594 117.832 211.588C118.74 211.588 119.193 212.42 119.193 214.08V217.495C119.207 217.709 119.389 217.815 119.738 217.815H120.208C120.559 217.815 120.739 217.709 120.755 217.495V213.79C120.755 211.464 119.867 210.301 118.095 210.301Z" fill="white"/>
<path d="M118.095 210.301C117.067 210.301 116.288 210.707 115.755 211.521C115.326 210.707 114.586 210.301 113.533 210.301C112.491 210.301 111.737 210.716 111.269 211.547V210.621C111.255 210.408 111.072 210.301 110.723 210.301H110.252C109.903 210.301 109.721 210.408 109.707 210.621V217.495C109.721 217.709 109.903 217.815 110.252 217.815H110.723C111.072 217.815 111.255 217.709 111.269 217.495V213.853C111.547 212.352 112.166 211.598 113.122 211.588C114.129 211.588 114.632 212.42 114.632 214.08V217.495C114.648 217.709 114.83 217.815 115.179 217.815H115.65C115.999 217.815 116.181 217.709 116.196 217.495V214.038C116.344 212.41 116.89 211.594 117.832 211.588C118.74 211.588 119.193 212.42 119.193 214.08V217.495C119.207 217.709 119.389 217.815 119.738 217.815H120.208C120.559 217.815 120.739 217.709 120.755 217.495V213.79C120.755 211.464 119.867 210.301 118.095 210.301Z" fill="white"/>
<path d="M126.488 211.437C127.357 211.437 127.848 211.719 127.961 212.278V212.318C127.961 212.837 127.57 213.194 126.787 213.388C126.459 213.47 126.127 213.512 125.793 213.512C125.319 213.512 124.834 213.453 124.335 213.335C124.57 212.161 125.288 211.53 126.488 211.437ZM129.516 216.041L128.627 215.666C128.556 215.644 128.494 215.632 128.439 215.632C128.356 215.632 128.294 215.662 128.26 215.722C127.896 216.28 127.306 216.561 126.488 216.561C125.284 216.561 124.572 215.897 124.358 214.57C124.817 214.619 125.268 214.644 125.712 214.644C128.049 214.545 129.242 213.737 129.292 212.222C129.117 210.959 128.208 210.313 126.562 210.286C124.233 210.331 122.985 211.563 122.825 213.982C122.836 216.466 124.057 217.729 126.488 217.774C127.983 217.746 129.02 217.265 129.598 216.329C129.624 216.288 129.636 216.247 129.636 216.205C129.636 216.142 129.595 216.088 129.516 216.041Z" fill="white"/>
<path d="M126.488 211.437C127.357 211.437 127.848 211.719 127.961 212.278V212.318C127.961 212.837 127.57 213.194 126.787 213.388C126.459 213.47 126.127 213.512 125.793 213.512C125.319 213.512 124.834 213.453 124.335 213.335C124.57 212.161 125.288 211.53 126.488 211.437ZM129.516 216.041L128.627 215.666C128.556 215.644 128.494 215.632 128.439 215.632C128.356 215.632 128.294 215.662 128.26 215.722C127.896 216.28 127.306 216.561 126.488 216.561C125.284 216.561 124.572 215.897 124.358 214.57C124.817 214.619 125.268 214.644 125.712 214.644C128.049 214.545 129.242 213.737 129.292 212.222C129.117 210.959 128.208 210.313 126.562 210.286C124.233 210.331 122.985 211.563 122.825 213.982C122.836 216.466 124.057 217.729 126.488 217.774C127.983 217.746 129.02 217.265 129.598 216.329C129.624 216.288 129.636 216.247 129.636 216.205C129.636 216.142 129.595 216.088 129.516 216.041Z" fill="white"/>
<path d="M135.493 210.286C134.372 210.309 133.636 210.683 133.288 211.411V210.621C133.273 210.408 133.091 210.3 132.744 210.3H132.249C131.899 210.3 131.72 210.408 131.703 210.621V217.495C131.733 217.708 131.924 217.815 132.271 217.815H132.744C133.091 217.815 133.273 217.708 133.288 217.495V213.471C133.294 212.366 133.831 211.789 134.902 211.74C135.217 211.711 135.429 211.598 135.538 211.398L135.867 210.668C135.886 210.612 135.898 210.565 135.898 210.526C135.898 210.366 135.763 210.286 135.493 210.286Z" fill="white"/>
<path d="M135.493 210.286C134.372 210.309 133.636 210.683 133.288 211.411V210.621C133.273 210.408 133.091 210.3 132.744 210.3H132.249C131.899 210.3 131.72 210.408 131.703 210.621V217.495C131.733 217.708 131.924 217.815 132.271 217.815H132.744C133.091 217.815 133.273 217.708 133.288 217.495V213.471C133.294 212.366 133.831 211.789 134.902 211.74C135.217 211.711 135.429 211.598 135.538 211.398L135.867 210.668C135.886 210.612 135.898 210.565 135.898 210.526C135.898 210.366 135.763 210.286 135.493 210.286Z" fill="white"/>
<path d="M138.397 210.301H137.925C137.576 210.301 137.396 210.408 137.381 210.621V217.495C137.396 217.709 137.576 217.815 137.925 217.815H138.397C138.746 217.815 138.929 217.709 138.942 217.495V210.621C138.929 210.408 138.746 210.301 138.397 210.301Z" fill="white"/>
<path d="M138.397 210.301H137.925C137.576 210.301 137.396 210.408 137.381 210.621V217.495C137.396 217.709 137.576 217.815 137.925 217.815H138.397C138.746 217.815 138.929 217.709 138.942 217.495V210.621C138.929 210.408 138.746 210.301 138.397 210.301Z" fill="white"/>
<path d="M138.422 207.58H137.906C137.557 207.58 137.383 207.695 137.383 207.927V208.616C137.383 208.843 137.557 208.956 137.906 208.956H138.422C138.776 208.956 138.953 208.843 138.953 208.616V207.927C138.953 207.695 138.776 207.58 138.422 207.58Z" fill="white"/>
<path d="M138.422 207.58H137.906C137.557 207.58 137.383 207.695 137.383 207.927V208.616C137.383 208.843 137.557 208.956 137.906 208.956H138.422C138.776 208.956 138.953 208.843 138.953 208.616V207.927C138.953 207.695 138.776 207.58 138.422 207.58Z" fill="white"/>
<path d="M144.917 211.548C145.734 211.548 146.325 211.805 146.69 212.319C146.722 212.379 146.783 212.408 146.867 212.408C146.923 212.408 146.985 212.396 147.056 212.374L147.944 212C148.024 211.953 148.064 211.9 148.064 211.836C148.064 211.795 148.052 211.752 148.027 211.712C147.448 210.776 146.413 210.293 144.917 210.267C142.486 210.312 141.264 211.569 141.254 214.038C141.264 216.479 142.486 217.723 144.917 217.769C146.413 217.741 147.448 217.259 148.027 216.323C148.052 216.281 148.064 216.241 148.064 216.199C148.064 216.136 148.024 216.082 147.944 216.035L147.056 215.661C146.985 215.638 146.923 215.627 146.867 215.627C146.783 215.627 146.722 215.656 146.69 215.715C146.325 216.228 145.734 216.485 144.917 216.485C143.591 216.485 142.908 215.671 142.869 214.038C142.908 212.379 143.591 211.548 144.917 211.548Z" fill="white"/>
<path d="M144.917 211.548C145.734 211.548 146.325 211.805 146.69 212.319C146.722 212.379 146.783 212.408 146.867 212.408C146.923 212.408 146.985 212.396 147.056 212.374L147.944 212C148.024 211.953 148.064 211.9 148.064 211.836C148.064 211.795 148.052 211.752 148.027 211.712C147.448 210.776 146.413 210.293 144.917 210.267C142.486 210.312 141.264 211.569 141.254 214.038C141.264 216.479 142.486 217.723 144.917 217.769C146.413 217.741 147.448 217.259 148.027 216.323C148.052 216.281 148.064 216.241 148.064 216.199C148.064 216.136 148.024 216.082 147.944 216.035L147.056 215.661C146.985 215.638 146.923 215.627 146.867 215.627C146.783 215.627 146.722 215.656 146.69 215.715C146.325 216.228 145.734 216.485 144.917 216.485C143.591 216.485 142.908 215.671 142.869 214.038C142.908 212.379 143.591 211.548 144.917 211.548Z" fill="white"/>
<path d="M155.157 214.508C154.822 215.776 154.093 216.412 152.966 216.416C151.829 216.416 151.263 215.637 151.263 214.079C151.406 212.461 152.168 211.629 153.542 211.583C154.319 211.583 154.857 211.74 155.157 212.053V214.508ZM153.595 210.293C151.292 210.383 150.023 211.651 149.789 214.093C149.789 216.575 150.88 217.815 153.063 217.815C154.037 217.723 154.733 217.367 155.157 216.746V217.495C155.172 217.708 155.354 217.815 155.702 217.815H156.172C156.522 217.815 156.704 217.708 156.719 217.495V211.473C156.255 210.686 155.215 210.293 153.595 210.293Z" fill="white"/>
<path d="M155.157 214.508C154.822 215.776 154.093 216.412 152.966 216.416C151.829 216.416 151.263 215.637 151.263 214.079C151.406 212.461 152.168 211.629 153.542 211.583C154.319 211.583 154.857 211.74 155.157 212.053V214.508ZM153.595 210.293C151.292 210.383 150.023 211.651 149.789 214.093C149.789 216.575 150.88 217.815 153.063 217.815C154.037 217.723 154.733 217.367 155.157 216.746V217.495C155.172 217.708 155.354 217.815 155.702 217.815H156.172C156.522 217.815 156.704 217.708 156.719 217.495V211.473C156.255 210.686 155.215 210.293 153.595 210.293Z" fill="white"/>
<path d="M162.468 210.293C161.498 210.384 160.799 210.742 160.375 211.363V210.621C160.36 210.407 160.203 210.3 159.903 210.3H159.285C158.984 210.3 158.829 210.407 158.813 210.621V217.495C158.829 217.708 159.011 217.815 159.36 217.815H159.831C160.178 217.815 160.36 217.708 160.375 217.495V213.6C160.708 212.333 161.44 211.695 162.565 211.691C163.652 211.691 164.197 212.405 164.197 213.832V217.495C164.208 217.708 164.393 217.815 164.742 217.815H165.212C165.561 217.815 165.742 217.708 165.758 217.495V213.86H165.742C165.697 211.482 164.608 210.293 162.468 210.293Z" fill="white"/>
<path d="M162.468 210.293C161.498 210.384 160.799 210.742 160.375 211.363V210.621C160.36 210.407 160.203 210.3 159.903 210.3H159.285C158.984 210.3 158.829 210.407 158.813 210.621V217.495C158.829 217.708 159.011 217.815 159.36 217.815H159.831C160.178 217.815 160.36 217.708 160.375 217.495V213.6C160.708 212.333 161.44 211.695 162.565 211.691C163.652 211.691 164.197 212.405 164.197 213.832V217.495C164.208 217.708 164.393 217.815 164.742 217.815H165.212C165.561 217.815 165.742 217.708 165.758 217.495V213.86H165.742C165.697 211.482 164.608 210.293 162.468 210.293Z" fill="white"/>
<path d="M173.115 214.508C172.78 215.776 172.052 216.412 170.924 216.416C169.788 216.416 169.221 215.637 169.221 214.079C169.367 212.461 170.125 211.629 171.501 211.583C172.278 211.583 172.816 211.74 173.115 212.053V214.508ZM171.554 210.293C169.25 210.383 167.981 211.651 167.749 214.093C167.749 216.575 168.838 217.815 171.023 217.815C171.994 217.723 172.692 217.367 173.115 216.746V217.495C173.131 217.708 173.312 217.815 173.661 217.815H174.133C174.481 217.815 174.662 217.708 174.677 217.495V211.473C174.215 210.686 173.173 210.293 171.554 210.293Z" fill="white"/>
<path d="M173.115 214.508C172.78 215.776 172.052 216.412 170.924 216.416C169.788 216.416 169.221 215.637 169.221 214.079C169.367 212.461 170.125 211.629 171.501 211.583C172.278 211.583 172.816 211.74 173.115 212.053V214.508ZM171.554 210.293C169.25 210.383 167.981 211.651 167.749 214.093C167.749 216.575 168.838 217.815 171.023 217.815C171.994 217.723 172.692 217.367 173.115 216.746V217.495C173.131 217.708 173.312 217.815 173.661 217.815H174.133C174.481 217.815 174.662 217.708 174.677 217.495V211.473C174.215 210.686 173.173 210.293 171.554 210.293Z" fill="white"/>
<path d="M14.0203 198.661L21.1063 176.284L50.8663 176.281C52.09 176.268 53.1349 175.519 53.4809 174.502L56.891 164.216L25.8622 164.258C25.8622 164.258 25.2625 164.191 24.9972 164.627C24.9139 164.766 24.5079 165.429 24.5079 165.429C24.5079 165.429 27.8952 154.789 32.7704 154.789H57.9348C59.1628 154.789 60.2013 154.054 60.56 153.044L64.7661 140.043L34.0441 140C24.0818 140.66 16.809 148.207 12.224 162.637L0.0185547 200.498H11.3606C12.623 200.498 13.6929 199.718 14.0203 198.661Z" fill="white"/>
<path d="M14.0203 198.661L21.1063 176.284L50.8663 176.281C52.09 176.268 53.1349 175.519 53.4809 174.502L56.891 164.216L25.8622 164.258C25.8622 164.258 25.2625 164.191 24.9972 164.627C24.9139 164.766 24.5079 165.429 24.5079 165.429C24.5079 165.429 27.8952 154.789 32.7704 154.789H57.9348C59.1628 154.789 60.2013 154.054 60.56 153.044L64.7661 140.043L34.0441 140C24.0818 140.66 16.809 148.207 12.224 162.637L0.0185547 200.498H11.3606C12.623 200.498 13.6929 199.718 14.0203 198.661Z" fill="white"/>
<path d="M86.9555 177.056H76.3124C76.3124 177.056 75.8454 177.073 75.7239 177.073C75.2511 177.073 74.7204 177.853 74.7204 177.853L83.9201 158.661L88.4138 175.972C88.4244 176.018 88.6468 177.056 86.9555 177.056ZM106.47 199.035L91.0136 140.043C90.5126 140.048 82.8439 140.043 81.8685 140.043C79.9326 140.043 79.2433 140.88 78.8267 141.64L50.4561 200.498H61.5784C63.7838 200.498 64.1638 199.615 64.5018 198.933L70.9919 185.559L88.512 185.49C90.6018 185.49 91.1813 186.811 91.1813 186.811L94.7256 200.498H104.082C104.082 200.498 106.856 200.498 106.47 199.035Z" fill="white"/>
<path d="M86.9555 177.056H76.3124C76.3124 177.056 75.8454 177.073 75.7239 177.073C75.2511 177.073 74.7204 177.853 74.7204 177.853L83.9201 158.661L88.4138 175.972C88.4244 176.018 88.6468 177.056 86.9555 177.056ZM106.47 199.035L91.0136 140.043C90.5126 140.048 82.8439 140.043 81.8685 140.043C79.9326 140.043 79.2433 140.88 78.8267 141.64L50.4561 200.498H61.5784C63.7838 200.498 64.1638 199.615 64.5018 198.933L70.9919 185.559L88.512 185.49C90.6018 185.49 91.1813 186.811 91.1813 186.811L94.7256 200.498H104.082C104.082 200.498 106.856 200.498 106.47 199.035Z" fill="white"/>
<path d="M173.191 140.042C170.397 140.042 168.919 140.042 167.256 142.85L145.788 178.986C145.788 178.986 145.505 179.444 145.425 179.591C144.996 180.375 145.047 181.455 145.047 181.455L137.628 140.042H126.84C123.926 140.042 121.798 140.042 121.231 143.176L109.289 200.497C110.684 200.453 116.626 200.497 116.626 200.497C121.654 200.497 121.654 200.497 122.276 197.405L129.332 163.382L135.795 199.677C139.903 199.683 136.168 199.683 139.903 199.683H141.955C145.974 199.677 145.974 199.677 147.453 197.241L167.361 163.626L159.683 200.497H167.393C171.974 200.497 171.974 200.497 172.691 197.363L184.64 140.042H173.191Z" fill="white"/>
<path d="M173.191 140.042C170.397 140.042 168.919 140.042 167.256 142.85L145.788 178.986C145.788 178.986 145.505 179.444 145.425 179.591C144.996 180.375 145.047 181.455 145.047 181.455L137.628 140.042H126.84C123.926 140.042 121.798 140.042 121.231 143.176L109.289 200.497C110.684 200.453 116.626 200.497 116.626 200.497C121.654 200.497 121.654 200.497 122.276 197.405L129.332 163.382L135.795 199.677C139.903 199.683 136.168 199.683 139.903 199.683H141.955C145.974 199.677 145.974 199.677 147.453 197.241L167.361 163.626L159.683 200.497H167.393C171.974 200.497 171.974 200.497 172.691 197.363L184.64 140.042H173.191Z" fill="white"/>
<path d="M91.9776 119.159C81.5265 119.159 71.664 116.892 62.9658 112.876H72.5699L77.9387 89.7729L79.5471 82.9623C79.5126 82.9657 79.1168 82.9948 78.6774 83.0325C70.6855 83.902 65.2137 86.0495 61.0782 89.9646C55.7211 95.0367 53.4615 101.824 52.4294 106.76C50.753 105.562 49.1477 104.289 47.6157 102.948C49.0262 97.8731 51.6227 91.8677 56.5866 87.1683C62.9823 81.113 72.148 78.8618 87.7492 78.8618C87.7492 78.8618 119.605 78.8638 119.63 78.8638C123.013 78.8638 124.207 78.8638 126.542 75.871L148.892 49.1244L108.364 48.9613C96.6862 49.5151 85.4668 50.2606 73.4869 64.2337L63.4445 75.9692L72.9483 44.4599C56.8302 47.3646 50.9276 51.2923 46.3431 67.4478L39.6413 94.4713C32.5457 85.2488 28.3852 74.0618 28.3852 62C28.3852 30.4326 56.8562 4.84118 91.9776 4.84118C102.5 4.84118 112.423 7.14026 121.164 11.2068L96.0414 11.1275C88.6763 11.0461 80.6727 11.1236 73.2757 20.3039C73.2757 20.3039 58.3623 38.4467 51.4816 49.4202C55.555 44.1211 64.7536 40.921 73.8854 40.6001L120.501 40.5918L120.509 40.5913C122.15 40.5913 123.494 40.5913 125.097 38.6844C125.098 38.6834 131.961 30.117 138.011 22.5657C148.89 32.8222 155.569 46.7101 155.569 62C155.569 93.5684 127.098 119.159 91.9776 119.159ZM141.206 18.5771C144.531 14.4267 147.045 11.2891 147.045 11.2891L131.588 11.2398C120.379 4.15954 106.719 0 91.9776 0C53.8823 0 23 27.7583 23 62C23 76.6431 28.6506 90.0982 38.0954 100.706L35.0627 112.936H45.8045C45.9202 112.228 46.0597 110.644 46.401 108.534C48.0572 109.846 49.784 111.087 51.576 112.252C51.5453 112.505 51.5171 112.718 51.4911 112.876H52.553C63.7279 119.886 77.3173 124 91.9776 124C130.072 124 160.955 96.2417 160.955 62C160.955 45.0893 153.419 29.7631 141.206 18.5771Z" fill="white"/>
<path d="M91.9776 119.159C81.5265 119.159 71.664 116.892 62.9658 112.876H72.5699L77.9387 89.7729L79.5471 82.9623C79.5126 82.9657 79.1168 82.9948 78.6774 83.0325C70.6855 83.902 65.2137 86.0495 61.0782 89.9646C55.7211 95.0367 53.4615 101.824 52.4294 106.76C50.753 105.562 49.1477 104.289 47.6157 102.948C49.0262 97.8731 51.6227 91.8677 56.5866 87.1683C62.9823 81.113 72.148 78.8618 87.7492 78.8618C87.7492 78.8618 119.605 78.8638 119.63 78.8638C123.013 78.8638 124.207 78.8638 126.542 75.871L148.892 49.1244L108.364 48.9613C96.6862 49.5151 85.4668 50.2606 73.4869 64.2337L63.4445 75.9692L72.9483 44.4599C56.8302 47.3646 50.9276 51.2923 46.3431 67.4478L39.6413 94.4713C32.5457 85.2488 28.3852 74.0618 28.3852 62C28.3852 30.4326 56.8562 4.84118 91.9776 4.84118C102.5 4.84118 112.423 7.14026 121.164 11.2068L96.0414 11.1275C88.6763 11.0461 80.6727 11.1236 73.2757 20.3039C73.2757 20.3039 58.3623 38.4467 51.4816 49.4202C55.555 44.1211 64.7536 40.921 73.8854 40.6001L120.501 40.5918L120.509 40.5913C122.15 40.5913 123.494 40.5913 125.097 38.6844C125.098 38.6834 131.961 30.117 138.011 22.5657C148.89 32.8222 155.569 46.7101 155.569 62C155.569 93.5684 127.098 119.159 91.9776 119.159ZM141.206 18.5771C144.531 14.4267 147.045 11.2891 147.045 11.2891L131.588 11.2398C120.379 4.15954 106.719 0 91.9776 0C53.8823 0 23 27.7583 23 62C23 76.6431 28.6506 90.0982 38.0954 100.706L35.0627 112.936H45.8045C45.9202 112.228 46.0597 110.644 46.401 108.534C48.0572 109.846 49.784 111.087 51.576 112.252C51.5453 112.505 51.5171 112.718 51.4911 112.876H52.553C63.7279 119.886 77.3173 124 91.9776 124C130.072 124 160.955 96.2417 160.955 62C160.955 45.0893 153.419 29.7631 141.206 18.5771Z" fill="white"/>
</svg>
