<svg width="196" height="196" viewBox="0 0 196 196" fill="none" xmlns="http://www.w3.org/2000/svg">
<circle cx="98" cy="98" r="98" fill="#1B3556"/>
<path d="M99.5003 181.76C85.7876 181.76 72.8485 178.437 61.4362 172.554H74.037L81.081 138.698L83.1913 128.718C83.1454 128.722 82.626 128.766 82.0495 128.821C71.5646 130.094 64.3855 133.242 58.9596 138.978C51.9309 146.411 48.9663 156.356 47.6121 163.59C45.4126 161.835 43.3065 159.97 41.2964 158.004C43.147 150.568 46.5538 141.768 53.0665 134.882C61.4578 126.008 73.4835 122.709 93.9519 122.709C93.9519 122.709 135.748 122.712 135.78 122.712C140.219 122.712 141.785 122.712 144.849 118.327L174.173 79.1326L121 78.8929C105.678 79.7051 90.9573 80.7969 75.2401 101.273L62.0642 118.471L74.5334 72.2974C53.3861 76.5539 45.6417 82.3094 39.6268 105.983L30.8338 145.582C21.5242 132.069 16.0656 115.675 16.0656 98.0003C16.0656 51.7413 53.4195 14.24 99.5003 14.24C113.306 14.24 126.325 17.6097 137.794 23.5681L104.832 23.4518C95.169 23.3326 84.6681 23.4461 74.963 36.8988C74.963 36.8988 55.3955 63.485 46.3686 79.5661C51.713 71.8001 63.7819 67.1115 75.7623 66.6405L136.923 66.6291L136.934 66.6277C139.087 66.6277 140.85 66.6277 142.953 63.834C142.953 63.834 151.959 51.2795 159.898 40.2132C174.171 55.2437 182.934 75.5941 182.934 98.0003C182.934 144.259 145.58 181.76 99.5003 181.76ZM164.089 34.3683C168.452 28.2872 171.751 23.6887 171.751 23.6887L151.471 23.6164C136.764 13.2411 118.842 7.14581 99.5003 7.14581C49.5184 7.14581 9 47.8224 9 98.0003C9 119.457 16.4137 139.174 28.8049 154.719L24.8258 172.64H38.9194C39.0719 171.604 39.2543 169.281 39.7027 166.19C41.8757 168.112 44.1413 169.931 46.4925 171.639C46.4521 172.01 46.4152 172.321 46.3811 172.554H47.7736C62.436 182.826 80.265 188.854 99.5003 188.854C149.481 188.854 190 148.178 190 98.0003C190 73.2189 180.113 50.7602 164.089 34.3683Z" fill="white"/>
</svg>
